<svg width="512" height="512" viewBox="0 0 512 512" xmlns="http://www.w3.org/2000/svg">
  <defs>
    <linearGradient id="mainGradient" x1="0%" y1="0%" x2="100%" y2="100%">
      <stop offset="0%" style="stop-color:#3b82f6;stop-opacity:1" />
      <stop offset="100%" style="stop-color:#1d4ed8;stop-opacity:1" />
    </linearGradient>
    <linearGradient id="accentGradient" x1="0%" y1="0%" x2="100%" y2="100%">
      <stop offset="0%" style="stop-color:#10b981;stop-opacity:0.8" />
      <stop offset="100%" style="stop-color:#8b5cf6;stop-opacity:0.8" />
    </linearGradient>
    <radialGradient id="glowGradient" cx="50%" cy="30%" r="70%">
      <stop offset="0%" style="stop-color:white;stop-opacity:0.2" />
      <stop offset="100%" style="stop-color:white;stop-opacity:0" />
    </radialGradient>
  </defs>
  
  <!-- Main background with rounded corners for modern look -->
  <rect width="512" height="512" rx="80" fill="url(#mainGradient)"/>
  
  <!-- Central Icon Elements -->
  <g fill="white">
    <!-- AI Spark Symbol (Top) -->
    <path d="M256 60 L200 140 L256 120 L312 140 Z" opacity="0.95"/>
    <circle cx="256" cy="140" r="6" fill="white"/>
    <circle cx="256" cy="140" r="3" fill="#10b981"/>
    
    <!-- Central AI Brain/Network -->
    <g opacity="0.9">
      <ellipse cx="256" cy="220" rx="70" ry="45" fill="none" stroke="white" stroke-width="6"/>
      <ellipse cx="256" cy="220" rx="45" ry="28" fill="none" stroke="white" stroke-width="3" opacity="0.7"/>
      <!-- Neural nodes -->
      <circle cx="230" cy="210" r="4" fill="white"/>
      <circle cx="256" cy="205" r="4" fill="white"/>
      <circle cx="282" cy="210" r="4" fill="white"/>
      <circle cx="220" cy="235" r="3" fill="white" opacity="0.8"/>
      <circle cx="292" cy="235" r="3" fill="white" opacity="0.8"/>
    </g>
    
    <!-- Content Creation Lines -->
    <g opacity="0.85">
      <rect x="180" y="300" width="152" height="8" rx="4" fill="white"/>
      <rect x="180" y="320" width="120" height="8" rx="4" fill="white" opacity="0.8"/>
      <rect x="180" y="340" width="136" height="8" rx="4" fill="white" opacity="0.9"/>
      <rect x="180" y="360" width="100" height="8" rx="4" fill="white" opacity="0.7"/>
    </g>
    
    <!-- Modern Tech Accents -->
    <circle cx="380" cy="100" r="18" fill="white" opacity="0.4"/>
    <circle cx="132" cy="380" r="14" fill="white" opacity="0.4"/>
    <rect x="360" y="420" width="40" height="4" rx="2" fill="white" opacity="0.5"/>
    
    <!-- YT Play Button Inspiration -->
    <path d="M400 200 L420 210 L400 220 Z" fill="white" opacity="0.6"/>
    
    <!-- Additional modern elements -->
    <path d="M100 200 Q120 180 140 200 Q120 220 100 200" fill="white" opacity="0.3"/>
    <rect x="80" y="300" width="20" height="3" rx="1" fill="white" opacity="0.4"/>
    <rect x="80" y="310" width="15" height="3" rx="1" fill="white" opacity="0.3"/>
  </g>
  
  <!-- Subtle glow overlay for depth -->
  <rect width="512" height="512" rx="80" fill="url(#glowGradient)"/>
  
  <!-- Subtle overlay for depth -->
  <rect width="512" height="512" rx="80" fill="url(#accentGradient)" opacity="0.1"/>
</svg>