<svg width="152" height="152" viewBox="0 0 152 152" xmlns="http://www.w3.org/2000/svg">
  <defs>
    <linearGradient id="mainGrad152" x1="0%" y1="0%" x2="100%" y2="100%">
      <stop offset="0%" style="stop-color:#3b82f6;stop-opacity:1" />
      <stop offset="100%" style="stop-color:#1d4ed8;stop-opacity:1" />
    </linearGradient>
  </defs>
  
  <rect width="152" height="152" rx="23" fill="url(#mainGrad152)"/>
  
  <g fill="white" transform="scale(0.296875)">
    <path d="M256 60 L200 140 L256 120 L312 140 Z" opacity="0.95"/>
    <circle cx="256" cy="140" r="6"/>
    <ellipse cx="256" cy="220" rx="70" ry="45" fill="none" stroke="white" stroke-width="6" opacity="0.9"/>
    <ellipse cx="256" cy="220" rx="45" ry="28" fill="none" stroke="white" stroke-width="3" opacity="0.7"/>
    <circle cx="230" cy="210" r="4"/>
    <circle cx="256" cy="205" r="4"/>
    <circle cx="282" cy="210" r="4"/>
    <rect x="180" y="300" width="152" height="8" rx="4" opacity="0.85"/>
    <rect x="180" y="320" width="120" height="8" rx="4" opacity="0.7"/>
    <rect x="180" y="340" width="136" height="8" rx="4" opacity="0.8"/>
    <rect x="180" y="360" width="100" height="8" rx="4" opacity="0.6"/>
    <circle cx="380" cy="100" r="18" opacity="0.4"/>
    <circle cx="132" cy="380" r="14" opacity="0.4"/>
    <path d="M400 200 L420 210 L400 220 Z" opacity="0.6"/>
  </g>
</svg>